<?xml version="1.0" standalone="no"?>
<!DOCTYPE svg PUBLIC "-//W3C//DTD SVG 20010904//EN"
 "http://www.w3.org/TR/2001/REC-SVG-20010904/DTD/svg10.dtd">
<svg version="1.0" xmlns="http://www.w3.org/2000/svg"
 width="709.000000pt" height="709.000000pt" viewBox="0 0 709.000000 709.000000"
 preserveAspectRatio="xMidYMid meet">
<metadata>
Created by potrace 1.11, written by Peter Selinger 2001-2013
</metadata>
<g transform="translate(0.000000,709.000000) scale(0.100000,-0.100000)"
fill="#000000" stroke="none">
<path d="M3100 7074 c0 -8 5 -12 10 -9 6 4 8 11 5 16 -9 14 -15 11 -15 -7z"/>
<path d="M1407 4310 c-14 -6 -17 -133 -4 -147 12 -11 1498 -10 1505 1 3 6 6
41 6 78 l1 68 -30 1 c-142 4 -1469 3 -1478 -1z"/>
<path d="M3894 4312 l-21 -3 0 -1170 c0 -1072 1 -1169 16 -1170 23 -1 134 -1
146 0 7 1 10 190 10 556 l0 555 782 0 783 0 0 -52 c0 -29 1 -279 0 -555 l0
-503 23 -1 c12 -1 38 -2 57 -3 19 0 48 1 64 4 l29 5 1 1168 1 1167 -22 1 c-29
1 -85 1 -122 0 l-30 -1 0 -531 c-1 -293 -3 -535 -7 -538 -10 -11 -1553 -7
-1557 4 -2 5 -3 247 -3 537 l1 528 -25 1 c-14 0 -43 2 -65 2 -22 1 -50 1 -61
-1z"/>
<path d="M1397 3225 c-2 -5 -3 -39 -2 -75 l1 -65 759 0 760 0 -2 60 c-1 33 -2
67 -2 75 -1 13 -91 15 -756 15 -495 0 -756 -3 -758 -10z"/>
<path d="M1407 2118 c-7 -4 -12 -37 -12 -77 -1 -65 1 -71 20 -72 60 -3 1472
-4 1485 -1 12 2 15 18 15 72 -1 38 -4 73 -8 77 -10 9 -1485 10 -1500 1z"/>
</g>
</svg>
